<?xml version="1.0" encoding="utf-8"?>
<svg version="1.1" id="Layer_1" xmlns="http://www.w3.org/2000/svg" xmlns:xlink="http://www.w3.org/1999/xlink" x="0px" y="0px"
	 viewBox="0 0 460 460" style="enable-background:new 0 0 460 460;" xml:space="preserve">
<style type="text/css">.st0{fill:#FFFFFF;}</style>
<path class="st0" d="M229.6,58c45.9,0,89.1,17.9,121.6,50.4s50.4,75.7,50.4,121.6s-17.9,89.1-50.4,121.6S275.5,402,229.6,402
	s-89.1-17.9-121.6-50.4S57.6,275.9,57.6,230s17.9-89.1,50.4-121.6S183.6,58,229.6,58 M229.6,13c-119.8,0-217,97.2-217,217
	s97.2,217,217,217s217-97.2,217-217S349.4,13,229.6,13L229.6,13z M191.7,326.2c0-5.2,1-10.2,2.9-14.9c2-4.7,4.7-8.8,8.2-12.3
	c3.5-3.5,7.6-6.2,12.3-8.2c4.7-2,9.7-2.9,14.9-2.9c5.2,0,10.2,1,14.9,2.9c4.7,2,8.8,4.7,12.3,8.2c3.5,3.5,6.2,7.6,8.2,12.3
	c2,4.7,2.9,9.7,2.9,14.9c0,5.2-1,10.2-2.9,14.9c-2,4.7-4.7,8.8-8.2,12.3c-3.5,3.5-7.6,6.2-12.3,8.2c-4.7,2-9.7,2.9-14.9,2.9
	c-5.2,0-10.2-1-14.9-2.9c-4.7-2-8.8-4.7-12.3-8.2c-3.5-3.5-6.2-7.6-8.2-12.3C192.7,336.4,191.7,331.4,191.7,326.2z M199.2,258.5
	v-163h61.5v163H199.2z"/>
</svg>
