<?xml version="1.0" encoding="utf-8"?>
<svg version="1.1" id="Layer_1" xmlns="http://www.w3.org/2000/svg" xmlns:xlink="http://www.w3.org/1999/xlink" x="0px" y="0px"
	 viewBox="0 0 460 460" style="enable-background:new 0 0 460 460;" xml:space="preserve">
<style type="text/css">.st0{fill:#FFFFFF;}</style>
<path class="st0" d="M292.6,460c-0.7-0.3-1.4-0.9-2.2-0.9c-15.6-1-30.2-5.5-44.6-11.3c-14.3-5.9-27.3-14-38.9-24.1
	c-12.1-10.4-22.7-22.3-31.1-36c-9.6-15.8-16.5-32.8-20-50.9c-1.3-6.6-2.6-13.3-2.3-20.1c0.1-2-0.4-4-0.5-6c-0.1-2.5-0.1-5,0-7.4
	c0.1-1.7,0.5-3.3,0.5-5c0.1-15.8,4-30.9,9.3-45.7c4.9-13.7,12-26.4,20.9-37.9c6.6-8.7,13.9-16.8,22.4-23.9
	c9.9-8.3,20.4-15.7,32-21.3c13.1-6.5,26.9-11.2,41.5-13.5c6.4-1,12.8-1.3,19.1-2.1c7.9-1,15.7-0.1,23.4,0.5
	c11.1,0.8,22.1,3.2,32.6,6.9c17.5,6.1,33.7,14.6,48,26.5c17.4,14.3,31.4,31.2,41.3,51.5c5.8,12,10.3,24.4,12.6,37.6
	c0.9,4.9,2,9.7,2.1,14.6c0,0.6,0.6,1.1,0.9,1.7c0,9.3,0,18.7,0,28c-0.3,0.4-0.9,0.7-0.9,1.1c0,5.2-1.2,10.1-2.1,15.1
	c-2,10.7-5.2,21-9.7,30.9c-6.3,13.9-14.1,26.7-24.1,38.3c-6.3,7.4-13.2,14.1-20.6,20.1c-8.1,6.5-16.8,12-26.1,16.7
	c-17,8.6-34.9,14.3-54,15.8c-0.5,0-1.1,0.6-1.6,0.9C311.2,460,301.9,460,292.6,460z M183.4,304.9c0.1,35.7,12.2,64.8,36,88.8
	c23.1,23.2,51.5,35.4,84.1,36.1c33.5,0.7,62.8-10.6,87.3-33.7c24.7-23.3,37.9-52.4,38.6-86.2c1.4-72.1-55.4-122.8-115.3-125.9
	c-36-1.9-67.4,9.3-93.3,34.4C196.1,242.4,183.6,272,183.4,304.9z M23.6,0c-3.7,1.8-7.6,3.4-11.2,5.6C6,9.4,2.5,15.4,0.5,22.5
	C0.4,23,0.4,344.6,0.5,345c3,14.1,16.3,23.1,29.5,23c32.5-0.1,100.6,0,102,0c-2.7-10.2-5.3-20-7.8-29.6c-0.4-0.2-92.1-0.4-92.6-0.4
	c-0.3,0-0.7-0.1-1-0.1c-0.1,0-0.3-0.2-0.4-0.3c-0.1-0.1-0.2-0.2-0.4-0.4c0-102.2,0-306.9,0-306.9h276.8c0,0,0,61,0,91.3
	c10.1,1,19.8,2,29.7,3c0.1-0.9,0.4-99.5,0-100.6c-2.7-9.5-7.7-17.1-17.1-21.2c-2.2-0.9-4.4-1.9-6.6-2.8C216.2,0,119.9,0,23.6,0z
	 M106.8,61.7v29.4l183.5,0.7V61.3L106.8,61.7z M106.8,123.6l0.4,29.2c0,0,51.8,0,77.7,0c13.4-12.1,28.5-21.4,44.8-29.5
	C222.8,122.6,106.8,123.6,106.8,123.6z M155.8,184.2l-49.2,0.5l0.1,29.2h31.8L155.8,184.2z M45.6,61.7l0,29.6L75.5,91V61.4
	L45.6,61.7z M75,123.3l-29.1,0.3l0.4,29.2h29L75,123.3z M75.3,213.4L75,184.3l-29.2,0.4c0,0,0,19.2,0,29.1
	C54.2,214.5,75.3,213.4,75.3,213.4z M75.3,246l-29.4,0v29.8c0,0,19.5,0,29.4,0C75.3,265.7,75.3,246,75.3,246z M106.6,275.7h15.5
	c0,0,3.4-19.6,5.2-29.7c-6.7-0.3-20.7-0.1-20.7-0.1L106.6,275.7z M337.6,337c7.2,0,12.4-4.2,14-11.4c0.6-2.6,0.9-5.2,1-7.8
	c0.1-9.7,0-19.3,0-29c0-18.8,0-37.6,0-56.5c0-5.7-1.5-10.8-6.4-14.3c-1.9-1.3-4-2.2-4.9-2.8c-6.8-1-11.6,0.5-15.5,4.9
	c-3.2,3.6-4,7.8-4.1,12.4c0,23,0,46,0,68.9c0,1.8-0.1,3.5-0.1,5.5c-2.2,0-3.9,0-5.5,0c-18.5,0-37,0-55.5,0c-5,0-9,1.9-12.1,5.7
	c-1.2,1.5-1.9,3.4-2.8,5c-1,9.4,0.4,14.8,11.1,19.3C283.9,337,310.8,337,337.6,337z"/>
</svg>
