<?xml version="1.0" encoding="utf-8"?>
<svg version="1.1" id="Layer_1" xmlns="http://www.w3.org/2000/svg" xmlns:xlink="http://www.w3.org/1999/xlink" x="0px" y="0px"
	 viewBox="0 0 460 460" style="enable-background:new 0 0 460 460;" xml:space="preserve">
<style type="text/css">.st0{fill:#FFFFFF;}</style>
<path class="st0" d="M48.8,254.7c0.4-1.5,0.8-3,1.2-4.5c3-9.7,12.1-15.9,20.3-15.9c19.8,0.1,39.6-0.1,59.4-0.1c75,0,150,0,225,0
	c11.6,0,23.2,0.1,34.8,0c10.1-0.1,18.3,7.9,20.6,15.5c4,12.8-3.9,26.7-17.2,28.8c-2.9,0.5-5.8,0.8-8.7,0.8c-23.5,0.1-47,0-70.5,0
	c-1.6,0-3.2,0-5.3,0c-0.5,3.3-1.1,6.4-1.5,9.6c-0.7,5.6-1.3,11.3-2,16.9c-0.8,6.4-1.7,12.7-2.4,19.1c-0.7,5.8-1.3,11.6-2,17.4
	c-0.7,5.9-1.5,11.9-2.3,17.8c-0.7,5.8-1.4,11.6-2.1,17.4c-0.8,6.2-1.6,12.4-2.4,18.7c-0.7,5.8-1.3,11.6-2.1,17.4
	c-0.7,6.1-1.6,12.1-2.3,18.2c-0.7,5.6-1.4,11.3-2.1,16.9c-0.3,2.3-0.6,4.6-0.9,6.9c-37.6,0-75.2,0-112.8,0c-0.7-5.5-1.4-11-2.1-16.5
	c-0.8-6.2-1.6-12.4-2.3-18.6c-0.7-5.8-1.4-11.6-2.1-17.4c-0.8-6.1-1.5-12.1-2.3-18.2c-0.7-5.8-1.4-11.6-2.1-17.4
	c-0.8-6.1-1.6-12.1-2.3-18.2c-0.7-5.8-1.3-11.6-2-17.4c-0.7-5.9-1.6-11.8-2.4-17.8c-1-8.2-1.9-16.5-2.9-24.8
	c-0.4-3.3-1-6.5-1.6-10.1c-1.9,0-3.5,0-5.1,0c-24.4,0-48.7,0-73.1,0c-11.7,0-20.2-5.9-23.5-16.1c-0.5-1.6-0.9-3.3-1.4-5
	C48.8,257,48.8,255.8,48.8,254.7z M226.7,4.5c-1.8,0.4-3.6,0.9-5.4,1.3c-22.7,5-38.4,28.2-34.4,51.4c4.3,24.8,28.2,42.2,53.5,36.8
	c25-5.3,39.8-27.9,35.4-52.3c-3.3-18.3-14.6-30.3-32.8-35.5c-2.2-0.6-4.4-1.2-6.6-1.7C233.2,4.5,229.9,4.5,226.7,4.5z M171.1,173.1
	c0.2-6.6,0-13.2,0.1-19.8c0-6.7,5-12.1,11.2-12.2c6.3-0.2,11.6,5.4,11.7,12.3c0,6-0.2,12,0.1,18c0.3,5.6-0.6,10.5-5.2,13.4
	c0,9,0,17.5,0,26c46.5,0,92.6,0,139,0c-0.1-1.5-0.2-2.6-0.4-3.7c-0.8-5.9-1.6-11.8-2.3-17.8c-0.7-5.8-1.4-11.6-2.1-17.4
	c-0.8-6.5-1.6-13-2.3-19.5c-0.4-3.2-0.4-6.5-1.1-9.6c-3.7-15.7-12.8-27-27.9-33.1c-6.9-2.8-14.2-4.3-21.8-2.3
	c-4.9,1.3-8.3,4.7-12.1,7.7c-5.2,4-10.4,8.1-16,11.3c-7.2,4-14.9,3.7-22.1-0.5c-3.8-2.2-7.3-4.8-10.9-7.3c-4.3-3-8.2-6.7-12.8-9.1
	c-7.7-3.9-16-3.6-24.2-1.1c-16.9,5.1-30,20.2-31.8,37.5c-0.6,5.8-1.2,11.6-1.9,17.4c-0.8,6.5-1.6,13-2.5,19.5
	c-0.8,5.8-1.6,11.5-2.3,17.3c-0.4,3.5-0.7,7.1-1.1,10.6c15,0,29.4,0,44,0c0-8.7,0-17.1,0-25.9C172.4,182,171,178,171.1,173.1z"/>
</svg>
