<?xml version="1.0" encoding="utf-8"?>
<svg version="1.1" id="Layer_1" xmlns="http://www.w3.org/2000/svg" xmlns:xlink="http://www.w3.org/1999/xlink" x="0px" y="0px"
	 viewBox="0 0 460 460" style="enable-background:new 0 0 460 460;" xml:space="preserve">
<style type="text/css">.st0{fill:#FFFFFF;}</style>
<path class="st0" d="M20,181.9c0-37.8,0-75.6,0-113.4c10.9,0.2,21.9-0.2,32.8,0.2c0,37.9,0,75.4,0,113.3c-4.6,0-9,0-13.3,0
	c-0.1,0.8-0.3,1.3-0.3,1.7c0,17.1,0,34.2,0,51.3c0,0.5,0.1,0.9,0.2,1.4c0,0.1,0.1,0.2,0.2,0.3c0.1,0.1,0.2,0.2,0.3,0.2
	c4.6,0.6,18.1,0.4,20.8-0.3c0-1.1,0.1-2.3,0.1-3.4c0-8.3,0-16.5,0-24.8c0-45.9,0.1-91.8,0-137.8c0-11.2,2-21.9,7.4-31.8
	C78.3,20.5,93.8,9.4,114.7,6c0.5-0.1,1-0.5,1.5-0.7c74.4,0,148.9,0,223.3,0c1.9,0.5,3.9,0.9,5.8,1.4c10.6,2.5,20.2,7.1,28.4,14.5
	c6.2,5.6,11.2,12,15,19.5c4.9,9.7,6.6,20.1,6.6,30.9c0,54.8,0,109.6,0,164.4c0,1.4,0,2.8,0,4.1c3.7,0.9,22,0.8,24.6-0.1
	c0-17,0-34.1,0-51.5c-4.3,0-8.5,0-12.5,0c-0.7-4.5-0.5-110.2,0.1-113.1c10.7,0,21.4,0,32.1,0c0.7,3.8,0.5,110.3-0.2,113.2
	c-4.4,0-8.9,0-13.8,0c0,1.6,0,2.8,0,4.1c0,16.4,0,32.8,0,49.2c0,1.3-0.1,2.5-0.2,4.1c-10.2,0-19.9,0-30.1,0c0,1.7,0,3.1,0,4.6
	c0,37.8,0,75.6,0,113.4c0,8.4-1,16.6-4.1,24.6c-5.3,13.7-14,24.3-26.4,32c-1.2,0.7-2.4,1.5-3.7,2.3c0,10.8,0,21.4,0,32
	c-18.4,0-36.9,0-55.3,0c0-4.1,0-8.1,0-12.2c0-4.1,0.2-8.3-0.2-12.6c-52.2,0-104.1,0-156.3,0c-0.2,8.4-0.2,16.6,0,24.8
	c-18.4,0-36.9,0-55.3,0c-0.1-1.2-0.2-2.4-0.2-3.6c0-8.4,0-16.8,0-25.1c0-1.3,0-2.6,0-3.6c-3.8-2.8-7.4-5.2-10.7-7.9
	C73,406,66.4,395.3,62.9,382.6c-1.7-6.2-2.2-12.5-2.2-18.8c0-38.9,0-77.8,0-116.7c0-1.4-0.1-2.8-0.1-4.5c-9.1,0-17.8,0-26.9,0
	c0-7,0-13.7,0-20.4c0-6.7,0-13.4,0-20.1c0-6.7,0.1-13.3-0.1-20.2C28.8,181.9,24.4,181.9,20,181.9z M368.9,71.5
	c-94.1,0-187.7,0-281.6,0c-0.1,1.3-0.2,2.5-0.3,3.7c0,3.6,0,7.2,0,10.8c0,52.2,0,104.3,0,156.5c0,2.2,0.7,4.2,1.6,6.1
	c5.1,10,13.3,16.8,22.5,22.6c13.2,8.3,27.8,13.4,42.9,16.7c10,2.2,20.2,4,30.4,5.2c10.2,1.2,20.5,1.4,30.8,1.8
	c19.4,0.8,38.7,0,58-2.4c12.7-1.6,25.3-3.8,37.6-7.5c14-4.2,27.3-9.6,39.1-18.2c6.8-5,12.9-10.6,17.1-18.1c1.3-2.2,1.9-4.5,1.9-7.1
	c-0.1-55.4,0-110.8,0-166.2C368.9,74.3,368.9,73.1,368.9,71.5z M302.8,18.4c-24.3,0-48.2,0-72.1,0c-24.7,0-49.5,0.1-74.2,0.2
	c-0.1,0-0.2,0.1-0.3,0.2c-0.1,0.1-0.2,0.2-0.2,0.2c-0.6,4.6-0.4,30.6,0.2,33.2c3.6,0.6,143.9,0.5,146.7-0.2
	C302.8,41.1,302.8,30,302.8,18.4z M171,363.5c0.6-4.9,0.5-33.5-0.2-36.1c-2.9-0.7-77.7-0.7-80.8,0c-0.6,3.7-0.5,33.4,0.2,36.1
	C117.1,363.5,144,363.5,171,363.5z M287.7,327.2c-0.7,3-0.8,32.9-0.1,36.2c0.3,0.1,0.7,0.2,1,0.2c26,0,52.1,0,78.1,0
	c0.5,0,0.9-0.1,1.4-0.1c0.1,0,0.2-0.1,0.3-0.2c0.1-0.1,0.2-0.2,0.2-0.2c0-11.9,0-23.8,0-35.9C341.5,327.2,314.6,327.2,287.7,327.2z"
	/>
</svg>
