<?xml version="1.0" encoding="utf-8"?>
<svg version="1.1" id="Layer_1" xmlns="http://www.w3.org/2000/svg" xmlns:xlink="http://www.w3.org/1999/xlink" x="0px" y="0px"
	 viewBox="0 0 460 460" style="enable-background:new 0 0 460 460;" xml:space="preserve">
<style type="text/css">.st0{fill:#FFFFFF;}</style>
<path class="st0" d="M224.8,6.6c3.5,0,7,0,10.5,0c1.4,0.3,2.7,0.8,4.1,0.7c6.3-0.3,12.5,0.9,18.5,2.2c15,3.1,29.4,8.4,42.7,16.3
	c15.5,9.2,28.9,20.8,40,35c10.5,13.5,18.4,28.4,23.4,44.7c3.4,11.2,5.7,22.7,5.8,34.5c0,2.1-0.7,4.3,0.8,6.2c0,0.3,0,0.6,0,0.9
	c-0.3,1.5-0.7,3-0.7,4.5c0.1,7-0.8,13.9-2.1,20.7c-2,10.2-4.3,20.3-7.2,30.2c-4.9,16.8-10.9,33.1-17.7,49.2
	c-9.1,21.7-19.1,43-29.9,64c-12.9,25.1-26.3,49.9-40.8,74.1c-11.6,19.3-23.6,38.5-35.4,57.8c-1.3,2.2-2.9,4.2-5,5.8
	c-0.9,0-1.7,0-2.6,0c-1.6-1.8-3.5-3.4-4.9-5.3c-10.7-14.8-20.8-30-30.7-45.3c-17.3-26.5-33.2-53.7-47.9-81.7
	c-8.1-15.3-15.7-31-22.6-46.9c-9.7-22.1-18-44.7-24.4-68c-3.3-12-5.7-24.2-7.2-36.5c-0.8-6.2-0.8-12.4-1.2-18.7
	c-0.1-1.4-0.5-2.7-0.7-4.1c0-0.3,0-0.6,0-0.9c0.3-1.2,0.7-2.4,0.7-3.6c0.3-4.5,0.2-8.9,0.8-13.4c1.3-9.5,3.2-18.8,6.4-27.8
	c8.1-23,21-42.8,39.3-59c9.7-8.6,20.3-15.9,32-21.5c16.9-8.1,34.5-13.1,53.3-13.6C222.9,7.3,223.8,6.8,224.8,6.6z M229.4,85
	c-18.8-0.3-34.3,7.8-45.5,19c-12.7,12.7-19.4,28.4-19,46.2c0.9,38.3,30.4,64.6,64.8,64.7c34.5,0.1,64.4-26.1,65.3-64.7
	c0.4-17.8-6.3-33.5-19-46.2C263.4,91.5,248.1,84.9,229.4,85z"/>
</svg>
