<?xml version="1.0" encoding="utf-8"?>
<svg version="1.1" id="Layer_1" xmlns="http://www.w3.org/2000/svg" xmlns:xlink="http://www.w3.org/1999/xlink" x="0px" y="0px"
	 viewBox="0 0 460 460" style="enable-background:new 0 0 460 460;" xml:space="preserve">
<style type="text/css">.st0{fill:#FFFFFF;}</style>
<path class="st0" d="M3,407.8C3,300.9,3,194,3,87.2c0.5,0,0.4-0.4,0.3-0.6c-0.2-1.7,0.2-3.3,0.4-4.9c0.3-1.7,0.9-3.5,1.2-5.2
	c0.7-3.2,2.1-6.1,3.4-9.1c0.7-1.6,1.7-3.2,2.7-4.7c2-3.1,4.1-6,6.7-8.6c1.3-1.3,2.5-2.7,4-3.7c1-0.7,1.7-1.7,2.7-2.3
	c3.1-1.8,5.9-4,9.3-5.3c2.6-1,5.1-2.1,7.7-2.8c2.6-0.7,5.2-1.3,7.9-1.6c2.5-0.3,5-0.6,7.5-0.4c3,0.1,6,0,9.1,0c2.3,0,6.9,0,6.9,0V3
	h34.9v34.9l244.5-0.1V3h34.9v34.9c0,0,18.2-0.3,21.6,0.3c1,0.2,2,0.2,3,0.3c1.5,0.2,3,0.4,4.4,0.8c1.3,0.3,2.5,0.7,3.8,1
	c1.5,0.4,3,0.9,4.4,1.5c1.5,0.6,3,1.2,4.4,2c1.6,0.9,3.1,1.8,4.6,2.8c2.5,1.6,4.8,3.4,7,5.5c2,1.9,3.8,3.9,5.5,6.1
	c1.4,1.8,2.7,3.7,3.8,5.6c1.3,2.1,2.4,4.2,3.2,6.5c0.3,0.9,0.7,1.7,1,2.5c0.6,1.7,1,3.4,1.5,5.1c0.7,2.3,0.9,4.6,1.2,7
	c0.1,0.6,0,1.3,0,1.9c0,0.1,0.2,0.2,0.3,0.3c0,106.9,0,213.7,0,320.6c-0.5,0-0.4,0.4-0.3,0.6c0.2,1.7-0.2,3.3-0.4,4.9
	c-0.2,1.3-0.6,2.6-0.9,4c-0.6,2.5-1.3,5-2.4,7.2c-1.8,3.8-3.6,7.7-6.3,11c-1.5,1.8-2.8,3.8-4.5,5.5c-1.7,1.7-3.6,3.3-5.5,4.8
	c-1.8,1.5-3.6,2.8-5.6,3.8c-3.1,1.7-6.3,3.5-9.8,4.5c-1.8,0.5-3.6,1.2-5.5,1.5c-0.8,0.2-1.7,0-2.3,0.4c-0.7,0.4-1.4,0-2,0.3
	c-0.7,0.4-1.4,0.3-2.1,0.3c-0.5,0-0.9,0-1.4,0c-0.1,0-0.2,0.2-0.3,0.3c-118.5,0-237,0-355.5,0c-0.2-0.1-0.3-0.3-0.4-0.3
	c-1.6,0.2-3.1-0.2-4.6-0.4c-0.8-0.1-1.7-0.1-2.5-0.4c-1-0.4-2-0.4-3-0.8c-1-0.4-2.1-0.7-3.1-1c-0.5-0.2-1-0.3-1.5-0.5
	c-0.5-0.2-0.9-0.6-1.5-0.5c-2.5-1.5-5.4-2.6-7.9-4.2c-3-1.9-5.7-4.1-8.3-6.4c-2-1.8-3.6-3.9-5.3-6c-1.5-1.8-2.7-3.9-4-5.9
	c-0.6-0.8-0.8-1.9-1.4-2.7c-0.7-0.9-0.8-2-1.4-2.9c-0.5-0.9-0.8-2-1.2-3c-0.6-1.7-1-3.4-1.5-5.1c-0.7-2.3-0.9-4.6-1.2-7
	c-0.1-0.6,0-1.3,0-1.9C3.3,407.9,3.1,407.9,3,407.8z M37.9,177.6c0,0,0,152.1,0,228c0,1.4,0.3,2.8,0.7,4.1c0.9,2.8,2.2,5.4,4.3,7.5
	c1.5,1.5,3.4,2.7,5.4,3.5c1.9,0.8,3.9,1.4,6.1,1.4c117.1,0,234.2,0,351.3,0c1.4,0,2.8-0.3,4.1-0.7c2.8-0.8,5.4-2.2,7.4-4.4
	c1.6-1.6,2.7-3.4,3.5-5.5c0.7-1.8,1.4-4.5,1.4-5.7c0-75.5,0-228.1,0-228.1H37.9z M37.9,142.6h384.2c0,0,0-34.8,0-51.4
	c0-2-0.1-4-0.7-6c-0.4-1.4-1.6-4.2-2.5-5.3c-1.1-1.4-2.2-2.7-3.7-3.7c-1.6-1.1-3.2-2.1-5-2.7c-1.6-0.5-3.2-0.8-4.9-0.8
	c-5.5,0.1-18.2,0-18.2,0v34.9h-34.9L352.2,73l-0.1-0.1H107.8l-0.1,34.7l-34.9,0.1V73c0,0-12.9-0.1-19.2-0.1c-1,0-2,0.5-3,0.4
	c-2.6,1-5,2.1-7.1,4c-1.9,1.8-3.4,3.9-4.4,6.4c-0.6,1.6-1.3,4.6-1.3,5.6C37.9,106.5,37.9,142.6,37.9,142.6z M247.4,352.3l-34.8,0.1
	v34.7h34.8V352.3z M177.6,387.1l-0.1-34.8h-34.7v34.8H177.6z M72.9,352.3l0.1,34.8h34.7v-34.8H72.9z M352.3,282.4l0.1,34.8h34.7
	v-34.8H352.3z M317.2,317.3l-0.1-34.8h-34.7v34.8H317.2z M212.6,282.4l0.1,34.8h34.7v-34.8H212.6z M177.6,282.4l-34.8,0.1v34.7h34.8
	V282.4z M72.9,282.4l0.1,34.8h34.7v-34.8H72.9z M352.3,212.6l0.1,34.8h34.7v-34.8H352.3z M317.2,247.4l-0.1-34.8h-34.7v34.8H317.2z
	 M247.4,212.6l-34.8,0.1v34.7h34.8V212.6z M177.6,247.4l-0.1-34.8h-34.7v34.8H177.6z"/>
</svg>
